<mxfile host="www.draw.io" modified="2019-11-11T10:40:31.265Z" agent="Mozilla/5.0 (X11; Linux x86_64) AppleWebKit/537.36 (KHTML, like Gecko) Chrome/78.0.3904.70 Safari/537.36" etag="x8Yjo5_VxV7OHRoORsQP" version="12.2.3" type="github" pages="1">
  <diagram id="12EuTXM_qI1TK7XyEKbd" name="Page-1">
    <mxGraphModel dx="854" dy="507" grid="1" gridSize="10" guides="1" tooltips="1" connect="1" arrows="1" fold="1" page="1" pageScale="1" pageWidth="827" pageHeight="1169" math="0" shadow="0">
      <root>
        <mxCell id="0"/>
        <mxCell id="1" parent="0"/>
        <mxCell id="7hBCwca6hGrMAsyxMWED-1" value="" style="rounded=0;whiteSpace=wrap;html=1;" vertex="1" parent="1">
          <mxGeometry x="50" y="50" width="640" height="480" as="geometry"/>
        </mxCell>
        <mxCell id="7hBCwca6hGrMAsyxMWED-2" style="edgeStyle=orthogonalEdgeStyle;rounded=1;orthogonalLoop=1;jettySize=auto;html=1;exitX=0.5;exitY=1;exitDx=0;exitDy=0;entryX=1;entryY=0.75;entryDx=0;entryDy=0;" edge="1" parent="1" source="7hBCwca6hGrMAsyxMWED-3" target="7hBCwca6hGrMAsyxMWED-19">
          <mxGeometry relative="1" as="geometry"/>
        </mxCell>
        <mxCell id="7hBCwca6hGrMAsyxMWED-3" value="Inst1" style="whiteSpace=wrap;html=1;aspect=fixed;" vertex="1" parent="1">
          <mxGeometry x="610" y="50" width="40" height="40" as="geometry"/>
        </mxCell>
        <mxCell id="7hBCwca6hGrMAsyxMWED-4" style="edgeStyle=orthogonalEdgeStyle;rounded=1;orthogonalLoop=1;jettySize=auto;html=1;exitX=0.5;exitY=1;exitDx=0;exitDy=0;entryX=1;entryY=0.5;entryDx=0;entryDy=0;" edge="1" parent="1" source="7hBCwca6hGrMAsyxMWED-5" target="7hBCwca6hGrMAsyxMWED-19">
          <mxGeometry relative="1" as="geometry"/>
        </mxCell>
        <mxCell id="7hBCwca6hGrMAsyxMWED-5" value="Inst0" style="whiteSpace=wrap;html=1;aspect=fixed;" vertex="1" parent="1">
          <mxGeometry x="570" y="50" width="40" height="40" as="geometry"/>
        </mxCell>
        <mxCell id="7hBCwca6hGrMAsyxMWED-6" value="Branch&lt;br&gt;Fetch2" style="whiteSpace=wrap;html=1;aspect=fixed;" vertex="1" parent="1">
          <mxGeometry x="110" y="50" width="50" height="50" as="geometry"/>
        </mxCell>
        <mxCell id="7hBCwca6hGrMAsyxMWED-7" value="Inst1" style="whiteSpace=wrap;html=1;aspect=fixed;" vertex="1" parent="1">
          <mxGeometry x="390" y="490" width="40" height="40" as="geometry"/>
        </mxCell>
        <mxCell id="7hBCwca6hGrMAsyxMWED-8" value="Inst0" style="whiteSpace=wrap;html=1;aspect=fixed;" vertex="1" parent="1">
          <mxGeometry x="350" y="490" width="40" height="40" as="geometry"/>
        </mxCell>
        <mxCell id="7hBCwca6hGrMAsyxMWED-9" style="edgeStyle=orthogonalEdgeStyle;rounded=1;orthogonalLoop=1;jettySize=auto;html=1;exitX=0.5;exitY=1;exitDx=0;exitDy=0;entryX=1;entryY=0.25;entryDx=0;entryDy=0;" edge="1" parent="1" source="7hBCwca6hGrMAsyxMWED-10" target="7hBCwca6hGrMAsyxMWED-19">
          <mxGeometry relative="1" as="geometry"/>
        </mxCell>
        <mxCell id="7hBCwca6hGrMAsyxMWED-10" value="PC" style="whiteSpace=wrap;html=1;aspect=fixed;" vertex="1" parent="1">
          <mxGeometry x="530" y="50" width="40" height="40" as="geometry"/>
        </mxCell>
        <mxCell id="7hBCwca6hGrMAsyxMWED-11" value="PC" style="whiteSpace=wrap;html=1;aspect=fixed;" vertex="1" parent="1">
          <mxGeometry x="310" y="490" width="40" height="40" as="geometry"/>
        </mxCell>
        <mxCell id="7hBCwca6hGrMAsyxMWED-12" style="edgeStyle=orthogonalEdgeStyle;rounded=1;orthogonalLoop=1;jettySize=auto;html=1;exitX=1;exitY=0.5;exitDx=0;exitDy=0;entryX=0;entryY=0.75;entryDx=0;entryDy=0;" edge="1" parent="1" source="7hBCwca6hGrMAsyxMWED-14" target="7hBCwca6hGrMAsyxMWED-19">
          <mxGeometry relative="1" as="geometry"/>
        </mxCell>
        <mxCell id="7hBCwca6hGrMAsyxMWED-13" style="edgeStyle=orthogonalEdgeStyle;rounded=1;orthogonalLoop=1;jettySize=auto;html=1;exitX=0.5;exitY=0;exitDx=0;exitDy=0;entryX=0;entryY=0.5;entryDx=0;entryDy=0;" edge="1" parent="1" source="7hBCwca6hGrMAsyxMWED-14" target="7hBCwca6hGrMAsyxMWED-19">
          <mxGeometry relative="1" as="geometry"/>
        </mxCell>
        <mxCell id="7hBCwca6hGrMAsyxMWED-14" value="Branch&lt;br&gt;Exec" style="whiteSpace=wrap;html=1;aspect=fixed;" vertex="1" parent="1">
          <mxGeometry x="50" y="380" width="50" height="50" as="geometry"/>
        </mxCell>
        <mxCell id="7hBCwca6hGrMAsyxMWED-15" style="edgeStyle=orthogonalEdgeStyle;rounded=1;orthogonalLoop=1;jettySize=auto;html=1;exitX=0.25;exitY=0;exitDx=0;exitDy=0;entryX=0.5;entryY=1;entryDx=0;entryDy=0;" edge="1" parent="1" source="7hBCwca6hGrMAsyxMWED-19" target="7hBCwca6hGrMAsyxMWED-6">
          <mxGeometry relative="1" as="geometry"/>
        </mxCell>
        <mxCell id="7hBCwca6hGrMAsyxMWED-16" style="edgeStyle=orthogonalEdgeStyle;rounded=1;orthogonalLoop=1;jettySize=auto;html=1;exitX=0.25;exitY=1;exitDx=0;exitDy=0;entryX=0.5;entryY=0;entryDx=0;entryDy=0;" edge="1" parent="1" source="7hBCwca6hGrMAsyxMWED-19" target="7hBCwca6hGrMAsyxMWED-11">
          <mxGeometry relative="1" as="geometry"/>
        </mxCell>
        <mxCell id="7hBCwca6hGrMAsyxMWED-17" style="edgeStyle=orthogonalEdgeStyle;rounded=1;orthogonalLoop=1;jettySize=auto;html=1;exitX=0.5;exitY=1;exitDx=0;exitDy=0;entryX=0.5;entryY=0;entryDx=0;entryDy=0;" edge="1" parent="1" source="7hBCwca6hGrMAsyxMWED-19" target="7hBCwca6hGrMAsyxMWED-8">
          <mxGeometry relative="1" as="geometry"/>
        </mxCell>
        <mxCell id="7hBCwca6hGrMAsyxMWED-18" style="edgeStyle=orthogonalEdgeStyle;rounded=1;orthogonalLoop=1;jettySize=auto;html=1;exitX=0.75;exitY=1;exitDx=0;exitDy=0;entryX=0.5;entryY=0;entryDx=0;entryDy=0;" edge="1" parent="1" source="7hBCwca6hGrMAsyxMWED-19" target="7hBCwca6hGrMAsyxMWED-7">
          <mxGeometry relative="1" as="geometry"/>
        </mxCell>
        <mxCell id="7hBCwca6hGrMAsyxMWED-19" value="Associative&lt;br&gt;Memory" style="rounded=0;whiteSpace=wrap;html=1;" vertex="1" parent="1">
          <mxGeometry x="250" y="200" width="240" height="180" as="geometry"/>
        </mxCell>
      </root>
    </mxGraphModel>
  </diagram>
</mxfile>
